<?xml version="1.0" encoding="UTF-8" standalone="no"?>
<!-- Created with Inkscape (http://www.inkscape.org/) -->

<svg
   xmlns:dc="http://purl.org/dc/elements/1.1/"
   xmlns:cc="http://creativecommons.org/ns#"
   xmlns:rdf="http://www.w3.org/1999/02/22-rdf-syntax-ns#"
   xmlns:svg="http://www.w3.org/2000/svg"
   xmlns="http://www.w3.org/2000/svg"
   xmlns:xlink="http://www.w3.org/1999/xlink"
   xmlns:sodipodi="http://sodipodi.sourceforge.net/DTD/sodipodi-0.dtd"
   xmlns:inkscape="http://www.inkscape.org/namespaces/inkscape"
   version="1.1"
   id="svg2"
   width="512"
   height="300"
   viewBox="0 0 512 300"
   sodipodi:docname="email.svg"
   inkscape:version="0.92.4 (5da689c313, 2019-01-14)">
  <metadata
     id="metadata8">
    <rdf:RDF>
      <cc:Work
         rdf:about="">
        <dc:format>image/svg+xml</dc:format>
        <dc:type
           rdf:resource="http://purl.org/dc/dcmitype/StillImage" />
        <dc:title></dc:title>
      </cc:Work>
    </rdf:RDF>
  </metadata>
  <defs
     id="defs6">
    <linearGradient
       gradientTransform="rotate(80)"
       id="verlauf">
      <stop
         id="stop896"
         stop-color="#E93E3A"
         offset="0%" />
      <stop
         id="stop898"
         stop-color="#EB4E3B"
         offset="30%" />
      <stop
         id="stop900"
         stop-color="#F07D3E"
         offset="60%" />
      <stop
         id="stop902"
         stop-color="#F6A030"
         offset="90%" />
      <stop
         id="stop904"
         stop-color="#FBBA18"
         offset="100%" />
    </linearGradient>
    <linearGradient
       gradientUnits="userSpaceOnUse"
       y2="103.34748"
       x2="356.23822"
       y1="103.34748"
       x1="196.8131"
       gradientTransform="matrix(0.97018596,0,0,1.0307302,499.14988,727.77237)"
       id="verlauf-8">
      <stop
         id="stop896-4"
         stop-color="#E93E3A"
         offset="0%" />
      <stop
         id="stop898-9"
         stop-color="#EB4E3B"
         offset="30%" />
      <stop
         id="stop900-3"
         stop-color="#F07D3E"
         offset="60%" />
      <stop
         id="stop902-3"
         stop-color="#F6A030"
         offset="90%" />
      <stop
         id="stop904-4"
         stop-color="#FBBA18"
         offset="100%" />
    </linearGradient>
    <linearGradient
       gradientUnits="userSpaceOnUse"
       y2="294.82547"
       x2="-12.386281"
       y1="220.94662"
       x1="265.34485"
       gradientTransform="matrix(0.97018596,0,0,1.0307302,1759.7449,-88.708267)"
       id="verlauf-8-9">
      <stop
         id="stop896-4-9"
         stop-color="#E93E3A"
         offset="0%" />
      <stop
         id="stop898-9-8"
         stop-color="#EB4E3B"
         offset="0.33333334" />
      <stop
         id="stop900-3-2"
         stop-color="#F07D3E"
         offset="0.66666669" />
      <stop
         id="stop902-3-9"
         stop-color="#F6A030"
         offset="1" />
    </linearGradient>
    <linearGradient
       inkscape:collect="always"
       xlink:href="#verlauf"
       id="linearGradient1003"
       x1="127.13542"
       y1="256.11707"
       x2="511.87878"
       y2="256.11707"
       gradientUnits="userSpaceOnUse"
       gradientTransform="matrix(0.83922366,0,0,0.87187044,-8.0158688,186.36971)" />
  </defs>
  <sodipodi:namedview
     pagecolor="#ffffff"
     bordercolor="#666666"
     borderopacity="1"
     objecttolerance="10"
     gridtolerance="10"
     guidetolerance="10"
     inkscape:pageopacity="0"
     inkscape:pageshadow="2"
     inkscape:window-width="1920"
     inkscape:window-height="1057"
     id="namedview4"
     showgrid="false"
     inkscape:zoom="0.4609375"
     inkscape:cx="47.627772"
     inkscape:cy="0.041354131"
     inkscape:window-x="1912"
     inkscape:window-y="-8"
     inkscape:window-maximized="1"
     inkscape:current-layer="g817" />
  <g
     id="g817"
     transform="translate(30.821215,-262.07894)">
    <path
       style="fill:url(#linearGradient1003);fill-opacity:1;stroke-width:0.85539132"
       d="m 123.97996,530.63239 c -10.47019,-0.97172 -21.16826,-5.27669 -22.56855,-16.10108 -4.002426,-30.93915 -2.426256,-72.05046 -2.426256,-104.52682 0,-93.48531 0.0893,-99.62645 1.503046,-103.31665 3.31562,-8.65479 8.68942,-14.04007 16.8993,-16.93541 3.80065,-1.34036 15.39916,-1.4578 143.22499,-1.45028 136.29096,0.008 139.18422,0.0428 143.80025,1.7283 7.11456,2.59785 13.54895,8.9956 15.76201,15.67224 0.80963,2.4426 1.10274,25.81181 1.28444,102.40493 0.25823,108.85902 0.45932,104.12177 -4.73112,111.45425 -3.0186,4.26431 -7.65109,7.84212 -12.68512,9.79708 -3.4737,1.349 -14.61035,1.48139 -138.89152,1.65106 -74.31325,0.10146 -137.84042,-0.0684 -141.17147,-0.37762 z m 145.6598,-113.73341 c 7.33653,-6.30543 31.42803,-26.80331 72.30064,-61.51591 55.3883,-47.0406 53.69344,-45.54961 52.59957,-46.27241 -1.40745,-0.92999 -268.0819,-0.84567 -268.63551,0.0849 -0.36791,0.61844 16.2607,15.35053 33.08945,29.31552 1.73359,1.43858 8.15173,6.93137 14.26253,12.20618 6.1108,5.27482 12.53183,10.7676 14.26897,12.20619 4.34207,3.59584 9.96916,8.41035 18.88037,16.15393 4.15415,3.60984 8.734,7.53326 10.17744,8.7187 1.44343,1.18544 10.6029,9.02133 20.35438,17.41309 9.75147,8.39175 18.94179,15.69684 20.42293,16.23352 3.74223,1.35598 6.67925,0.26918 12.27923,-4.54375 z"
       id="path831"
       inkscape:connector-curvature="0"
       sodipodi:nodetypes="cscsccccsccsccsccsscsssccc" />
    <path
       style="fill:#1c2237;fill-opacity:1;stroke-width:0.85539132"
       d="m 133.48347,538.3295 c -4.9368,-1.39081 -11.27757,-5.9754 -13.83785,-10.00525 -4.8512,-7.63569 -4.62125,-2.20108 -4.62125,-109.2174 0,-97.21472 0.0205,-98.4359 1.72963,-103.18175 2.09147,-5.80741 7.19244,-11.50262 12.95679,-14.46621 0,0 2.63557,-2.1424 4.19611,-2.15733 53.63554,-0.5133 141.40919,0 141.40919,0 h 141.40913 l 3.93411,1.90748 c 5.26664,2.55353 10.29451,7.94464 13.08081,14.02558 l 2.28722,4.99183 v 98.9573 c 0,0 2.39112,64.25197 0,98.9573 -0.50361,7.31097 -14.58226,20.38825 -19.30214,20.92489 -42.44634,0.0295 -139.73068,0.16429 -139.73068,0.16429 -107.8383,0.12678 -140.59357,-0.0788 -143.51107,-0.90073 z m 279.36554,-18.1033 c 5.40024,-1.95578 5.13505,2.85513 5.13505,-93.15232 0,-61.68771 -0.26444,-87.23034 -0.90309,-87.23034 -0.49674,0 -17.20778,13.85002 -37.13565,30.77783 -73.67367,62.58236 -88.79386,75.21349 -93.09516,77.77004 -3.96507,2.35671 -5.10676,2.61154 -11.53407,2.57448 -9.17174,-0.0528 -11.6324,-1.40884 -28.23017,-15.5564 -10.76231,-9.17353 -94.10708,-79.7835 -107.96652,-91.46959 -2.67201,-2.253 -5.22116,-4.09636 -5.66476,-4.09636 -0.51078,0 -0.79566,32.05412 -0.77683,87.40502 0.0319,93.80508 -0.13375,90.19805 4.25875,92.72733 2.6833,1.5451 271.66346,1.78911 275.91245,0.25031 z M 152.59287,500.33922 c -2.34203,-2.174 -2.74072,-3.12699 -2.74072,-6.55109 v -4.00701 l 25.32198,-26.265 25.32196,-26.26498 3.87511,0.45377 c 2.13131,0.24958 4.60087,1.13613 5.4879,1.97012 2.16389,2.03446 3.64229,6.95895 2.95786,9.85253 -0.61688,2.60796 -45.4375,49.99822 -49.28575,52.11135 -3.75606,2.06253 -7.83889,1.57741 -10.93834,-1.29969 z m 233.92038,0.89206 c -1.38472,-0.90504 -12.78037,-12.37957 -25.32361,-25.49895 -19.29095,-20.17704 -22.89173,-24.34102 -23.36272,-27.01703 -1.48498,-8.43703 7.76699,-14.39469 14.38124,-9.26056 1.38999,1.07894 12.77525,12.6502 25.30064,25.71391 24.63164,25.69047 25.32072,26.67992 22.511,32.3246 -2.68904,5.40237 -8.49966,7.0105 -13.50655,3.73803 z M 278.18423,432.28913 c 1.176,-0.46451 12.43568,-9.5955 25.02154,-20.29107 12.58584,-10.69558 42.23795,-35.8914 65.89357,-55.99073 23.65555,-20.09933 43.01015,-36.99951 43.01015,-37.55596 0,-1.66345 -25.717,-2.05713 -135.95417,-2.08122 -110.92646,-0.0242 -137.63269,0.39286 -137.63269,2.14958 0,0.58878 11.19614,10.62987 24.8803,22.31352 13.68417,11.68365 30.77286,26.28637 37.97487,32.45049 7.20202,6.16413 15.02931,12.83393 17.39399,14.8218 2.36467,1.98786 14.63831,12.47205 27.27477,23.2982 12.63645,10.82615 23.73066,20.13233 24.6538,20.68042 2.08197,1.23607 4.69239,1.30757 7.48387,0.20497 z M 29.515929,482.48546 c -3.84549,-2.2143 -5.226223,-7.02553 -3.285888,-11.44978 2.021791,-4.60995 3.185677,-4.7712 34.412921,-4.76766 27.051665,0.003 28.9466,0.10556 31.467042,1.70215 4.90237,3.10545 4.51057,11.68727 -0.66041,14.46531 -3.305529,1.77584 -58.858573,1.82068 -61.933665,0.05 z M 12.12557,427.04796 c -2.6421281,-1.10907 -5.3610531,-5.15015 -5.3610531,-7.96803 0,-1.51261 0.957487,-3.59795 2.448015,-5.33161 l 2.4480161,-2.84734 30.234786,-0.24923 30.234778,-0.24923 2.76228,2.56411 c 2.356595,2.1875 2.748428,3.1135 2.667879,6.30476 -0.07637,3.02567 -0.597904,4.20803 -2.728605,6.18586 l -2.634189,2.44521 -29.149779,-0.0553 c -16.032378,-0.0304 -29.947336,-0.39003 -30.922128,-0.7992 z m 16.714104,-56.65062 c -4.902367,-3.10545 -4.510567,-11.68727 0.660411,-14.46531 3.13022,-1.68166 58.128378,-1.88253 61.629867,-0.22507 4.085252,1.93376 5.643042,7.39643 3.396392,11.90999 -2.15081,4.32102 -3.413682,4.48604 -34.300812,4.48254 -26.971205,-0.003 -28.865812,-0.10581 -31.385858,-1.70215 z"
       id="path827"
       inkscape:connector-curvature="0"
       sodipodi:nodetypes="csscssccccccscsccsssscsssscccscccscccccssssccsssssssssscsccccccccssccccssccccsccscs" />
  </g>
</svg>
