<?xml version="1.0" encoding="UTF-8" standalone="no"?>
<svg
   xmlns:dc="http://purl.org/dc/elements/1.1/"
   xmlns:cc="http://creativecommons.org/ns#"
   xmlns:rdf="http://www.w3.org/1999/02/22-rdf-syntax-ns#"
   xmlns:svg="http://www.w3.org/2000/svg"
   xmlns="http://www.w3.org/2000/svg"
   xmlns:sodipodi="http://sodipodi.sourceforge.net/DTD/sodipodi-0.dtd"
   xmlns:inkscape="http://www.inkscape.org/namespaces/inkscape"
   version="1.1"
   id="Layer_1"
   x="0px"
   y="0px"
   width="122.88px"
   height="121.135px"
   viewBox="0 0 122.88 121.135"
   enable-background="new 0 0 122.88 121.135"
   xml:space="preserve"
   sodipodi:docname="group.svg"
   inkscape:version="1.0.2-2 (e86c870879, 2021-01-15)"><metadata
     id="metadata11"><rdf:RDF><cc:Work
         rdf:about=""><dc:format>image/svg+xml</dc:format><dc:type
           rdf:resource="http://purl.org/dc/dcmitype/StillImage" /><dc:title /></cc:Work></rdf:RDF></metadata><defs
     id="defs9" /><sodipodi:namedview
     pagecolor="#ffffff"
     bordercolor="#666666"
     borderopacity="1"
     objecttolerance="10"
     gridtolerance="10"
     guidetolerance="10"
     inkscape:pageopacity="0"
     inkscape:pageshadow="2"
     inkscape:window-width="1920"
     inkscape:window-height="1017"
     id="namedview7"
     showgrid="false"
     inkscape:zoom="4.9617431"
     inkscape:cx="39.343962"
     inkscape:cy="45.336613"
     inkscape:window-x="-8"
     inkscape:window-y="-8"
     inkscape:window-maximized="1"
     inkscape:current-layer="Layer_1"
     inkscape:document-rotation="0" /><g
     id="g4"
     transform="matrix(0.60567746,0,0,0.60567746,24.588133,25.192759)"
     style="stroke-width:0;stroke-miterlimit:4;stroke-dasharray:none;stroke:none;stroke-opacity:1;fill:#ffffff;fill-opacity:1"><path
       d="m 74.401,65.787 h 41.427 c 1.943,0 3.707,0.791 4.982,2.068 1.276,1.275 2.069,3.039 2.069,4.982 v 41.246 c 0,1.941 -0.793,3.707 -2.069,4.98 -1.275,1.277 -3.039,2.07 -4.982,2.07 H 74.401 c -1.942,0 -3.706,-0.793 -4.982,-2.07 -1.275,-1.273 -2.068,-3.039 -2.068,-4.98 V 72.838 c 0,-1.943 0.793,-3.707 2.068,-4.982 1.276,-1.278 3.04,-2.069 4.982,-2.069 z M 7.052,0 h 41.426 c 1.942,0 3.707,0.792 4.983,2.069 1.276,1.277 2.068,3.04 2.068,4.983 v 41.245 c 0,1.943 -0.792,3.707 -2.068,4.982 -1.276,1.276 -3.041,2.069 -4.983,2.069 H 7.052 c -1.934,0 -3.692,-0.793 -4.969,-2.069 L 2.076,53.273 2.069,53.279 C 0.792,52.003 0,50.239 0,48.296 V 7.052 C 0,5.109 0.792,3.345 2.069,2.069 2.162,1.976 2.26,1.888 2.359,1.807 3.607,0.685 5.255,0 7.052,0 Z M 48.131,7.397 H 7.397 V 47.95 H 48.13 V 7.397 Z M 74.401,0 h 41.427 c 1.943,0 3.707,0.792 4.982,2.069 1.276,1.276 2.069,3.04 2.069,4.983 v 41.245 c 0,1.943 -0.793,3.707 -2.069,4.982 -1.275,1.276 -3.039,2.069 -4.982,2.069 H 74.401 c -1.942,0 -3.706,-0.793 -4.982,-2.069 -1.275,-1.275 -2.068,-3.04 -2.068,-4.982 V 7.052 c 0,-1.943 0.793,-3.707 2.068,-4.983 C 70.695,0.792 72.459,0 74.401,0 Z m 41.081,7.397 H 74.748 V 47.95 h 40.734 z M 7.052,65.787 h 41.426 c 1.942,0 3.707,0.791 4.983,2.068 1.276,1.275 2.068,3.039 2.068,4.982 v 41.246 c 0,1.941 -0.792,3.707 -2.068,4.98 -1.276,1.277 -3.041,2.07 -4.983,2.07 H 7.052 c -1.934,0 -3.692,-0.793 -4.969,-2.07 l -0.007,-0.006 -0.007,0.006 C 0.792,117.791 0,116.025 0,114.084 V 72.838 C 0,70.895 0.792,69.131 2.069,67.856 2.162,67.762 2.26,67.674 2.36,67.592 3.607,66.471 5.255,65.787 7.052,65.787 Z m 41.079,7.397 H 7.397 v 40.553 H 48.13 V 73.184 Z m 67.351,0 H 74.748 v 40.553 h 40.734 z"
       id="path2"
       style="stroke-width:0;stroke-miterlimit:4;stroke-dasharray:none;stroke:none;stroke-opacity:1;fill:#ffffff;fill-opacity:1" /></g><circle
     style="fill:none;stroke:#ffffff;stroke-width:5.60542;stroke-linejoin:round;stroke-miterlimit:4;stroke-dasharray:none;fill-opacity:1;stroke-opacity:1"
     id="path840"
     cx="59.132446"
     cy="63.528584"
     r="57.842098"
     transform="rotate(-2.2407476)" /><path
     style="fill:#ffffff;stroke:none;stroke-width:1px;stroke-linecap:butt;stroke-linejoin:miter;stroke-opacity:1;fill-opacity:1"
     d="m 26.805096,29.223601 c 0.403084,26.603554 1.209252,27.20818 1.209252,27.20818 h 27.409723 l 1.209252,-28.014348 z"
     id="path832" /><path
     style="fill:#ffffff;fill-opacity:1;stroke:none;stroke-width:1px;stroke-linecap:butt;stroke-linejoin:miter;stroke-opacity:1"
     d="m 67.315053,28.719745 c 0.403084,26.603554 1.209252,27.20818 1.209252,27.20818 H 95.934028 L 97.14328,27.913577 Z"
     id="path832-5" /><path
     style="fill:#ffffff;fill-opacity:1;stroke:none;stroke-width:1px;stroke-linecap:butt;stroke-linejoin:miter;stroke-opacity:1"
     d="m 26.805096,68.826619 c 0.403084,26.603554 1.209252,27.20818 1.209252,27.20818 h 27.409723 l 1.209252,-28.014348 z"
     id="path832-2" /><path
     style="fill:#ffffff;fill-opacity:1;stroke:none;stroke-width:1px;stroke-linecap:butt;stroke-linejoin:miter;stroke-opacity:1"
     d="m 67.315053,68.826618 c 0.403084,26.603554 1.209252,27.20818 1.209252,27.20818 H 95.934028 L 97.14328,68.02045 Z"
     id="path832-6" /></svg>
