<?xml version="1.0" encoding="UTF-8" standalone="no"?>
<svg
   xmlns:dc="http://purl.org/dc/elements/1.1/"
   xmlns:cc="http://creativecommons.org/ns#"
   xmlns:rdf="http://www.w3.org/1999/02/22-rdf-syntax-ns#"
   xmlns:svg="http://www.w3.org/2000/svg"
   xmlns="http://www.w3.org/2000/svg"
   xmlns:xlink="http://www.w3.org/1999/xlink"
   xmlns:sodipodi="http://sodipodi.sourceforge.net/DTD/sodipodi-0.dtd"
   xmlns:inkscape="http://www.inkscape.org/namespaces/inkscape"
   version="1.1"
   id="Layer_1"
   x="0px"
   y="0px"
   viewBox="0 0 512 512"
   style="enable-background:new 0 0 512 512;"
   xml:space="preserve"
   sodipodi:docname="QuestionMarkSelected.svg"
   inkscape:version="1.0.2-2 (e86c870879, 2021-01-15)"><metadata
   id="metadata880"><rdf:RDF><cc:Work
       rdf:about=""><dc:format>image/svg+xml</dc:format><dc:type
         rdf:resource="http://purl.org/dc/dcmitype/StillImage" /><dc:title></dc:title></cc:Work></rdf:RDF></metadata><defs
   id="defs878"><linearGradient
     inkscape:collect="always"
     id="linearGradient886"><stop
       style="stop-color:#50570f;stop-opacity:1"
       offset="0"
       id="stop882" /><stop
       style="stop-color:#efefbd;stop-opacity:1"
       offset="1"
       id="stop884" /></linearGradient><linearGradient
     inkscape:collect="always"
     xlink:href="#linearGradient886"
     id="linearGradient890"
     x1="270.54401"
     y1="-0.87554699"
     x2="274.92175"
     y2="511.31943"
     gradientUnits="userSpaceOnUse" /><linearGradient
     inkscape:collect="always"
     xlink:href="#linearGradient886"
     id="linearGradient902"
     x1="270.54401"
     y1="-0.87554699"
     x2="274.92175"
     y2="511.31943"
     gradientUnits="userSpaceOnUse" /><linearGradient
     inkscape:collect="always"
     xlink:href="#linearGradient886"
     id="linearGradient918"
     x1="270.54401"
     y1="-0.87554699"
     x2="274.92175"
     y2="511.31943"
     gradientUnits="userSpaceOnUse" /><linearGradient
     inkscape:collect="always"
     xlink:href="#linearGradient886"
     id="linearGradient924"
     x1="270.54401"
     y1="-0.87554699"
     x2="274.92175"
     y2="511.31943"
     gradientUnits="userSpaceOnUse" /></defs><sodipodi:namedview
   pagecolor="#ffffff"
   bordercolor="#666666"
   borderopacity="1"
   objecttolerance="10"
   gridtolerance="10"
   guidetolerance="10"
   inkscape:pageopacity="0"
   inkscape:pageshadow="2"
   inkscape:window-width="1920"
   inkscape:window-height="1017"
   id="namedview876"
   showgrid="false"
   inkscape:zoom="1.1421432"
   inkscape:cx="166.3585"
   inkscape:cy="279.95001"
   inkscape:window-x="-8"
   inkscape:window-y="-8"
   inkscape:window-maximized="1"
   inkscape:current-layer="Layer_1" />
<g
   id="g837"
   style="fill-opacity:1;fill:url(#linearGradient924)">
	<g
   id="g835"
   style="fill-opacity:1.0;fill:url(#linearGradient924)">
		<path
   d="M256,417.959c-25.927,0-47.02,21.093-47.02,47.02c0,25.927,21.093,47.02,47.02,47.02s47.02-21.093,47.02-47.02    C303.02,439.053,281.927,417.959,256,417.959z M256,480.653c-8.642,0-15.673-7.031-15.673-15.673    c0-8.642,7.031-15.674,15.673-15.674c8.642,0,15.673,7.031,15.673,15.674C271.673,473.622,264.642,480.653,256,480.653z"
   id="path833"
   style="fill-opacity:1.0;fill:url(#linearGradient924)" />
	</g>
</g>
<g
   id="g843"
   style="fill-opacity:1;fill:url(#linearGradient890)">
	<g
   id="g841"
   style="fill-opacity:1.0;fill:url(#linearGradient890)">
		<path
   d="M256,0c-85.271,0-154.645,69.374-154.645,154.645v15.673h94.041v-15.673c0-33.417,27.187-60.604,60.604-60.604    c33.417,0,60.604,27.187,60.604,60.604c0,16.188-6.304,31.406-17.75,42.853c-18.533,18.533-74.232,70.103-74.792,70.622    l-15.083,13.958v104.535h94.041V323.13c19.308-17.977,48.793-45.598,62.329-59.135c29.209-29.208,45.295-68.043,45.295-109.351    C410.645,69.374,341.271,0,256,0z M343.184,241.829c-14.956,14.956-51.494,49.036-66.509,62.996l-5.002,4.65v45.791h-31.347    v-59.487l5.028-4.654c0.565-0.522,56.709-52.505,75.665-71.462c17.367-17.366,26.931-40.457,26.931-65.018    c0-50.702-41.249-91.951-91.951-91.951c-45.361,0-83.155,33.015-90.615,76.278h-31.692C141.415,78.356,193.321,31.347,256,31.347    c67.986,0,123.298,55.312,123.298,123.298C379.298,187.58,366.473,218.542,343.184,241.829z"
   id="path839"
   style="fill-opacity:1.0;fill:url(#linearGradient890)" />
	</g>
</g>
<g
   id="g845">
</g>
<g
   id="g847">
</g>
<g
   id="g849">
</g>
<g
   id="g851">
</g>
<g
   id="g853">
</g>
<g
   id="g855">
</g>
<g
   id="g857">
</g>
<g
   id="g859">
</g>
<g
   id="g861">
</g>
<g
   id="g863">
</g>
<g
   id="g865">
</g>
<g
   id="g867">
</g>
<g
   id="g869">
</g>
<g
   id="g871">
</g>
<g
   id="g873">
</g>
<path
   style="fill:url(#linearGradient902);stroke:none;stroke-width:1px;stroke-linecap:butt;stroke-linejoin:miter;stroke-opacity:1;fill-opacity:1"
   d="m 115.5722,155.84736 66.54157,-1.75109 14.8843,-47.27954 44.65289,-28.017503 50.78173,5.253282 21.88867,21.888671 17.51094,37.64852 -9.63102,47.27954 -24.51531,33.27078 -28.0175,24.51532 -34.14634,28.0175 -11.38211,30.64415 0.87555,51.65727 17.51094,16.63539 42.02626,-4.37773 4.37773,-29.7686 4.37773,-29.7686 64.79048,-61.28829 31.51969,-56.91055 1.7511,-72.6704 -37.64852,-72.670397 -55.15946,-26.266409 -61.28829,-3.502188 -49.90618,15.759846 -37.64852,34.146332 -28.89305,46.403986 z"
   id="path892" /><path
   style="fill:url(#linearGradient918);stroke:none;stroke-width:1px;stroke-linecap:butt;stroke-linejoin:miter;stroke-opacity:1;fill-opacity:1"
   d="m 225.01557,464.03989 28.0175,35.89743 35.02188,-30.64414 -29.76859,-41.15071 z"
   id="path894" /></svg>
